<svg width="324" height="138" viewBox="0 0 324 138" fill="none" xmlns="http://www.w3.org/2000/svg">
<rect width="324" height="138" rx="20" fill="url(#paint0_linear)"/>
<path fill-rule="evenodd" clip-rule="evenodd" d="M147.488 54.7864C145.168 54.7864 142.414 55.2783 139.406 58.7662V49.0051C139.406 46.5392 137.405 44.5333 134.944 44.5333C132.484 44.5333 130.483 46.5392 130.483 49.0051V80.8375C130.483 83.3033 132.484 85.3092 134.944 85.3092C137.405 85.3092 139.406 83.3033 139.406 80.8375V68.4827C139.406 64.9309 141.089 62.9697 144.154 62.9697C147.156 62.9697 148.737 64.8734 148.737 68.4827V80.8375C148.737 83.3033 150.738 85.3092 153.199 85.3092C155.659 85.3092 157.66 83.3033 157.66 80.8375V65.8891C157.654 58.9387 153.855 54.7864 147.488 54.7864ZM173.111 55.0037C169.478 55.0037 166.597 55.4764 163.773 56.5369C162.307 57.0863 161.326 58.5044 161.326 60.0632C161.326 62.1457 162.977 63.7747 165.086 63.7747C165.52 63.7747 165.883 63.7108 166.38 63.5447C168.095 63.0081 169.905 62.7526 171.925 62.7526C176.718 62.7526 177.738 65.4037 177.751 67.646C176.087 67.103 173.99 66.6047 171.065 66.6047C163.442 66.6047 159.069 70.099 159.069 76.1998V76.3084C159.069 81.8214 163.2 85.5266 169.344 85.5266C172.805 85.5266 175.578 84.4725 177.789 82.3133C178.165 83.8912 179.676 85.3157 181.996 85.3157C184.437 85.3157 186.349 83.4248 186.349 81.0101V67.8312C186.349 63.6853 185.266 60.4912 183.118 58.3447C180.9 56.128 177.534 55.0037 173.111 55.0037ZM171.817 79.1192C169.287 79.1192 167.719 77.9182 167.719 75.9826V75.874C167.719 73.5678 169.644 72.2519 173.003 72.2519C174.723 72.2519 176.438 72.5904 177.859 73.2037V74.4238C177.859 77.1836 175.374 79.1192 171.817 79.1192ZM198.306 58.8433C200.613 56.1155 203.456 54.7867 206.974 54.7867C213.686 54.7867 220.474 60.0442 220.474 70.0993V70.2079C220.474 74.8393 219.053 78.7617 216.369 81.5597C213.915 84.1214 210.582 85.5268 206.974 85.5268C203.501 85.5268 200.741 84.3386 198.351 81.8089V89.4747C198.351 91.9405 196.349 93.9464 193.889 93.9464C191.429 93.9464 189.427 91.9405 189.427 89.4747V59.4757C189.427 57.0098 191.429 55.0039 193.889 55.0039C196.139 55.0039 198 56.6777 198.306 58.8433ZM211.557 70.0993C211.557 65.7617 208.683 62.4845 204.871 62.4845C201.034 62.4845 198.242 65.685 198.242 70.0993V70.2079C198.242 74.6221 201.028 77.8226 204.871 77.8226C208.746 77.8226 211.557 74.6221 211.557 70.2079V70.0993ZM240.08 54.7867C236.561 54.7867 233.719 56.1155 231.411 58.8433C231.105 56.6777 229.244 55.0039 226.994 55.0039C224.534 55.0039 222.533 57.0098 222.533 59.4757V89.4747C222.533 91.9405 224.534 93.9464 226.994 93.9464C229.455 93.9464 231.456 91.9405 231.456 89.4747V81.8089C233.846 84.3386 236.606 85.5268 240.08 85.5268C243.687 85.5268 247.021 84.1214 249.475 81.5597C252.158 78.7617 253.579 74.8393 253.579 70.2079V70.0993C253.579 60.0442 246.791 54.7867 240.08 54.7867ZM237.976 62.4845C241.788 62.4845 244.662 65.7617 244.662 70.0993V70.2079C244.662 74.6221 241.852 77.8226 237.976 77.8226C234.133 77.8226 231.348 74.6221 231.348 70.2079V70.0993C231.348 65.685 234.139 62.4845 237.976 62.4845ZM273.485 58.3768C274.313 56.1664 275.792 55.0038 277.761 55.0038C280.139 55.0038 282.006 56.8244 282 59.137C282 59.8077 281.783 60.7787 281.592 61.2259L271.528 85.45C268.998 91.589 266.359 93.7674 261.445 93.7674C259.711 93.7674 258.379 93.5374 256.849 92.9881C255.797 92.6048 254.026 91.6082 254.026 89.2446C254.026 86.9193 255.855 85.533 257.62 85.533C258.321 85.533 258.742 85.6544 259.08 85.7694C259.775 85.9866 260.157 86.076 260.686 86.076C262.025 86.076 262.586 85.8588 263.261 84.562L263.465 84.0765L253.675 61.3409C253.452 60.7787 253.216 59.9099 253.216 59.303C253.216 56.85 255.109 54.9974 257.62 54.9974C259.692 54.9974 261.094 56.0834 261.897 58.3193L267.793 74.2067L273.485 58.3768Z" fill="white"/>
<path d="M105.974 50.7786V76.9078C105.974 87.2784 97.5339 95.6863 87.1237 95.6863H85.217L75.4805 105.38C75.0992 105.759 74.5717 106 73.987 106C73.4467 106 72.9574 105.804 72.5824 105.475L72.4172 105.31L72.4108 105.304L62.7569 95.6863H60.8439C50.44 95.6863 42 87.2784 42 76.9078V50.7786C42 40.4079 50.44 32 60.8503 32H87.1237C97.5339 32 105.974 40.4079 105.974 50.7786Z" fill="#FFD666"/>
<path d="M56.8951 68.197C55.0393 68.197 53.9816 70.3036 55.0583 71.8248C59.245 77.7501 66.1679 81.6133 73.9902 81.6133C81.8124 81.6133 88.729 77.7437 92.9156 71.8248C93.9924 70.3036 92.9347 68.197 91.0788 68.197H56.8951Z" fill="white"/>
<path d="M67.7641 59.2298H56.5659V53.6036C56.5659 50.4977 59.0741 47.9774 62.165 47.9774C65.2559 47.9774 67.7641 50.4977 67.7641 53.6036V59.2298Z" fill="white"/>
<path d="M91.415 59.2298H80.2168V53.6036C80.2168 50.4977 82.725 47.9774 85.8159 47.9774C88.9068 47.9774 91.415 50.4977 91.415 53.6036V59.2298Z" fill="white"/>
<defs>
<linearGradient id="paint0_linear" x1="324" y1="138" x2="272.345" y2="-68.2185" gradientUnits="userSpaceOnUse">
<stop stop-color="#29B6D1"/>
<stop offset="1" stop-color="#00C7C7"/>
</linearGradient>
</defs>
</svg>
